<svg xmlns="http://www.w3.org/2000/svg" width="24" height="24" viewBox="0 0 24 24"><path d="M9.52 4.1a.55.55 0 01.48-.59h4a.55.55 0 01.48.59V11h-.65L18 15.15V12a1.1 1.1 0 00-1-1h-1V3.53A1.44 1.44 0 0014.53 2H9.47A1.43 1.43 0 008 3.53v1.62l1.51 1.51zM18 18l-7-7-1.49-1.51L8 8 3.51 3.49 2.1 4.91l5.9 5.9V11H7a1.1 1.1 0 00-1 1v7.61a.85.85 0 00.88.83H8v.82a.75.75 0 00.77.74.73.73 0 00.74-.74v-.84h5v.82a.76.76 0 001.51 0v-.82h1.12a.84.84 0 00.41-.11l1.54 1.55 1.42-1.42z" fill="#5f6368"/><path d="M0 0h24v24H0z" fill="none"/></svg>
